<?xml version="1.0" encoding="utf-8"?>
<!-- Generator: Adobe Illustrator 16.0.0, SVG Export Plug-In . SVG Version: 6.00 Build 0)  -->
<!DOCTYPE svg PUBLIC "-//W3C//DTD SVG 1.1//EN" "http://www.w3.org/Graphics/SVG/1.1/DTD/svg11.dtd">
<svg version="1.1" id="Layer_1" xmlns="http://www.w3.org/2000/svg" xmlns:xlink="http://www.w3.org/1999/xlink" x="0px" y="0px"
	 width="50px" height="50px" viewBox="0 0 50 50" enable-background="new 0 0 50 50" xml:space="preserve">
<path d="M48.888,10.16c-0.294-0.402-1.757-2.344-4.123-4.709c-2.312-2.312-4.105-3.661-4.625-4.036
	c-1.242-1.042-3.109-0.96-4.258,0.189L1.964,35.522c-0.665,0.663-0.782,1.47-0.851,2.309c-0.042,0.514-0.068,1.17-0.071,1.851
	c-0.001,0.224-0.018,0.542-0.041,0.914c-0.062,1.13-0.146,2.674,0.091,3.967c0.281,1.53,1.038,2.431,1.583,2.976
	c0.543,0.545,1.443,1.303,2.972,1.597c1.295,0.249,2.851,0.184,3.985,0.135c0.376-0.019,0.705-0.031,0.934-0.029
	c0.688,0.004,1.352-0.011,1.87-0.049c0.684-0.046,1.619-0.114,2.352-0.845l33.918-33.917C49.861,13.276,49.939,11.405,48.888,10.16z
	 M38.265,6.25c0.738,0.606,1.782,1.513,2.983,2.716c1.229,1.228,2.176,2.313,2.808,3.086L11.858,44.249
	c-0.535,0.025-1.398,0.034-2.369-0.008c-0.427-0.592-0.977-1.221-1.635-1.88c-0.644-0.645-1.258-1.179-1.827-1.593
	c-0.03-0.941-0.01-1.784,0.022-2.302L38.265,6.25z"/>
</svg>
